<?xml version="1.0" standalone="no"?><!DOCTYPE svg PUBLIC "-//W3C//DTD SVG 1.1//EN" "http://www.w3.org/Graphics/SVG/1.1/DTD/svg11.dtd"><svg t="1719733986973" class="icon" viewBox="0 0 1024 1024" version="1.1" xmlns="http://www.w3.org/2000/svg" p-id="4278" xmlns:xlink="http://www.w3.org/1999/xlink" width="200" height="200"><path d="M520.533333 849.066667c-173.511111 0-314.311111-140.8-314.311111-314.311111 0-173.511111 140.8-314.311111 314.311111-314.311112 173.511111 0 314.311111 140.8 314.311111 314.311112 0 15.644444-12.8 28.444444-28.444444 28.444444H548.977778v257.422222c0 15.644444-12.8 28.444444-28.444445 28.444445z m0-573.155556c-142.222222 0-257.422222 115.2-257.422222 257.422222 0 132.266667 100.977778 241.777778 228.977778 256v-256c0-15.644444 12.8-28.444444 28.444444-28.444444h256c-14.222222-128-123.733333-228.977778-256-228.977778z" fill="#3FA6AD" p-id="4279"></path><path d="M618.666667 901.688889c-7.111111 0-12.8-2.844444-18.488889-5.688889-7.111111-5.688889-9.955556-14.222222-9.955556-22.755556v-241.777777c0-15.644444 12.8-28.444444 28.444445-28.444445h240.355555c8.533333 0 17.066667 4.266667 22.755556 9.955556s7.111111 15.644444 5.688889 24.177778c-28.444444 132.266667-130.844444 234.666667-263.111111 263.111111-1.422222 1.422222-4.266667 1.422222-5.688889 1.422222z m28.444444-241.777778v174.933333c82.488889-28.444444 146.488889-92.444444 174.933333-174.933333H647.111111z" fill="#DC4569" p-id="4280"></path></svg>